<svg width="32" height="32" viewBox="0 0 32 32" fill="none" xmlns="http://www.w3.org/2000/svg">
<mask id="path-1-inside-1_197_126" fill="white">
<rect x="2" y="7" width="29" height="18" rx="1"/>
</mask>
<rect x="2" y="7" width="29" height="18" rx="1" stroke="#00A7FF" stroke-width="4" mask="url(#path-1-inside-1_197_126)"/>
<rect x="5" y="11" width="2" height="2" fill="#00A7FF"/>
<rect x="17" y="11" width="2" height="2" fill="#00A7FF"/>
<rect x="11" y="11" width="2" height="2" fill="#00A7FF"/>
<rect x="23" y="11" width="2" height="2" fill="#00A7FF"/>
<rect x="8" y="11" width="2" height="2" fill="#00A7FF"/>
<rect x="20" y="11" width="2" height="2" fill="#00A7FF"/>
<rect x="14" y="11" width="2" height="2" fill="#00A7FF"/>
<rect x="26" y="11" width="2" height="2" fill="#00A7FF"/>
<rect x="5" y="15" width="2" height="2" fill="#00A7FF"/>
<rect x="17" y="15" width="2" height="2" fill="#00A7FF"/>
<rect x="11" y="15" width="2" height="2" fill="#00A7FF"/>
<rect x="23" y="15" width="2" height="2" fill="#00A7FF"/>
<rect x="8" y="15" width="2" height="2" fill="#00A7FF"/>
<rect x="20" y="15" width="2" height="2" fill="#00A7FF"/>
<rect x="14" y="15" width="2" height="2" fill="#00A7FF"/>
<rect x="26" y="15" width="2" height="2" fill="#00A7FF"/>
<rect x="11" y="19" width="11" height="2" fill="#00A7FF"/>
<rect x="23" y="19" width="2" height="2" fill="#00A7FF"/>
<rect x="8" y="19" width="2" height="2" fill="#00A7FF"/>
</svg>
